<svg xmlns="http://www.w3.org/2000/svg" viewBox="0 0 512 512">
  <rect width="512" height="512" fill="#f5e9d3" />
  <g transform="translate(70, 70) scale(0.73)">
    <!-- Milk Jug -->
    <path d="M160 80c-8.84 0-16 7.16-16 16v16h-14.93c-8.08 0-14.48 6.25-15.52 14.31l-1.97 15.75c-0.78 6.22-3.08 12.01-6.64 16.94L76 200c-10.78 12-16 29.09-16 48v144c0 22.09 17.91 40 40 40h160c22.09 0 40-17.91 40-40V248c0-18.91-5.22-36-16-48l-28.94-32c-3.56-4.93-5.86-10.72-6.64-16.94l-1.97-15.75c-1.05-8.06-7.44-14.31-15.52-14.31H144v-16c0-8.84-7.16-16-16-16h-16" fill="#8B4513"/>
    <!-- Milk Splash -->
    <path d="M304 96c-8.84 0-16-7.16-16-16s7.16-16 16-16 16 7.16 16 16-7.16 16-16 16zm-48-16c0 8.84-7.16 16-16 16s-16-7.16-16-16 7.16-16 16-16 16 7.16 16 16zm-80 16c-8.84 0-16-7.16-16-16s7.16-16 16-16 16 7.16 16 16-7.16 16-16 16z" fill="#8B4513"/>
    <!-- Milk in Jug -->
    <path d="M260 392c0 6.63-5.37 12-12 12H132c-6.63 0-12-5.37-12-12v-96c0-6.63 5.37-12 12-12h116c6.63 0 12 5.37 12 12v96z" fill="#FFFFFF"/>
  </g>
  <!-- Text -->
  <g transform="translate(290, 240)">
    <text font-family="serif" font-size="80" font-weight="bold" fill="#8B4513">
      <tspan x="0" y="0">Garam</tspan>
      <tspan x="0" y="80">Doodh</tspan>
    </text>
  </g>
</svg>